<?xml version="1.0" encoding="iso-8859-1"?>
<!-- Generator: Adobe Illustrator 19.0.0, SVG Export Plug-In . SVG Version: 6.00 Build 0)  -->
<svg version="1.1" id="Capa_1" xmlns="http://www.w3.org/2000/svg" xmlns:xlink="http://www.w3.org/1999/xlink" x="0px" y="0px"
	 viewBox="0 0 512 512" style="enable-background:new 0 0 512 512;" xml:space="preserve">
<path style="fill:#5EAC24;" d="M345.851,18.208c-0.145,0.279-0.33,0.558-0.516,0.837c-21.78,31.302-83.857,99.648-231.186,90.105
	c-6.186-0.392-12.527-0.94-19.023-1.621c0,0,1.745-3.387,5.453-8.964c18.785-28.245,88.091-112.681,237.01-96.529
	c1.456,0.155,2.778,0.578,3.955,1.208C346.74,6.021,348.981,12.775,345.851,18.208z"/>
<path style="fill:#47821C;" d="M345.851,18.208c-66.322,11.226-192.913,71.826-231.702,90.942
	c-6.186-0.392-12.527-0.94-19.023-1.621c0,0,1.745-3.387,5.453-8.964c28.782-14.437,166.599-82.019,240.966-95.32
	C346.74,6.021,348.981,12.775,345.851,18.208z"/>
<path style="fill:#6DC82A;" d="M365.125,317.963c-20.667-39.639-52.891-83.205-88.191-114.966
	c-28.156-25.335-60.753-47.911-96.883-67.102C118.568,103.238,68.757,91.831,66.667,91.362c-3.968-0.892-7.945,1.435-9.116,5.328
	c-1.17,3.892,0.867,8.026,4.667,9.47c57.842,21.979,96.605,60.438,115.214,114.308c13.994,40.51,10.771,75.101,10.734,75.483
	c-0.43,4.252,2.668,8.048,6.92,8.483c4.244,0.427,8.057-2.664,8.492-6.919c0.155-1.524,3.636-37.824-11.286-81.47
	c-8.786-25.699-22.163-48.609-39.761-68.092c-5.094-5.64-10.542-10.99-16.338-16.045c11.47,5.013,23.793,10.87,36.592,17.669
	c54.934,29.178,133.692,89.405,178.605,175.549c1.381,2.649,4.08,4.166,6.875,4.166c1.206,0,2.431-0.282,3.574-0.879
	C365.631,326.434,367.103,321.756,365.125,317.963z"/>
<path style="fill:#A5001E;" d="M438.683,467.154c-12.764,19.56-31.281,33.109-51.863,39.873
	c-27.563,9.057-58.845,5.969-85.024-11.122c-45.739-29.866-58.607-91.148-28.751-136.888c25.064-38.386,72.26-53.619,113.827-39.874
	c7.962,2.633,15.718,6.331,23.061,11.122C455.671,360.132,468.539,421.414,438.683,467.154z"/>
<g>
	<path style="fill:#C70024;" d="M438.683,467.154c-12.764,19.56-31.281,33.109-51.863,39.873
		c-7.962-2.633-15.718-6.331-23.061-11.122c-45.739-29.866-58.607-91.148-28.751-136.888c12.764-19.56,31.281-33.109,51.863-39.874
		c7.962,2.633,15.718,6.331,23.061,11.122C455.671,360.132,468.539,421.414,438.683,467.154z"/>
	<path style="fill:#C70024;" d="M282.483,449.804c-2.799,4.43-5.99,8.706-9.573,12.764c-36.166,40.937-98.667,44.81-139.604,8.644
		c-40.948-36.166-44.81-98.667-8.654-139.604c6.403-7.239,13.622-13.332,21.408-18.217c36.197-22.834,84.498-20.19,118.195,9.573
		C301.134,355.537,307.93,409.486,282.483,449.804z"/>
</g>
<path style="fill:#FF0C38;" d="M282.483,449.804c-36.197,22.834-84.498,20.19-118.195-9.573
	c-36.889-32.582-43.684-86.532-18.228-126.839c36.197-22.834,84.498-20.19,118.195,9.573
	C301.134,355.537,307.93,409.486,282.483,449.804z"/>
<g>
</g>
<g>
</g>
<g>
</g>
<g>
</g>
<g>
</g>
<g>
</g>
<g>
</g>
<g>
</g>
<g>
</g>
<g>
</g>
<g>
</g>
<g>
</g>
<g>
</g>
<g>
</g>
<g>
</g>
</svg>
