<svg id="Layer_2" height="512" viewBox="0 0 128 128" width="512" xmlns="http://www.w3.org/2000/svg" data-name="Layer 2"><g fill="rgb(0,0,0)"><path d="m122.244 23.416h-116.494a5.757 5.757 0 0 0 -5.75 5.75v69.668a5.757 5.757 0 0 0 5.75 5.75h116.494a5.757 5.757 0 0 0 5.75-5.75v-69.668a5.757 5.757 0 0 0 -5.75-5.75zm-116.494 3.5h116.494a2.253 2.253 0 0 1 2.25 2.25v9.088h-120.994v-9.088a2.253 2.253 0 0 1 2.25-2.25zm118.744 23.539h-120.994v-8.7h120.994zm-2.25 50.629h-116.494a2.253 2.253 0 0 1 -2.25-2.25v-44.879h120.994v44.879a2.253 2.253 0 0 1 -2.25 2.25z"/><path d="m106.072 70.743a11.836 11.836 0 0 0 -6.837 2.172 11.917 11.917 0 1 0 0 19.488 11.911 11.911 0 1 0 6.837-21.66zm-13.661 20.333a8.417 8.417 0 1 1 4.232-15.683 11.993 11.993 0 0 0 0 14.533 8.366 8.366 0 0 1 -4.232 1.15zm13.661 0c-10.857 0-11.053-16.833 0-16.833a8.417 8.417 0 1 1 0 16.833z"/><path d="m35.994 70.9h-22.236a3.754 3.754 0 0 0 -3.75 3.75v2a3.754 3.754 0 0 0 3.75 3.75h22.236a3.754 3.754 0 0 0 3.75-3.75v-2a3.754 3.754 0 0 0 -3.75-3.75zm.25 5.75a.25.25 0 0 1 -.25.25h-22.236a.25.25 0 0 1 -.25-.25v-2a.25.25 0 0 1 .25-.25h22.236a.25.25 0 0 1 .25.25z"/><path d="m70.236 70.9h-22.236a3.755 3.755 0 0 0 -3.75 3.75v2a3.755 3.755 0 0 0 3.75 3.75h22.236a3.754 3.754 0 0 0 3.75-3.75v-2a3.754 3.754 0 0 0 -3.75-3.75zm.25 5.75a.25.25 0 0 1 -.25.25h-22.236a.25.25 0 0 1 -.25-.25v-2a.25.25 0 0 1 .25-.25h22.236a.25.25 0 0 1 .25.25z"/><path d="m18 85.076h-4.242a3.754 3.754 0 0 0 -3.75 3.75v2a3.754 3.754 0 0 0 3.75 3.75h4.242a3.755 3.755 0 0 0 3.75-3.75v-2a3.755 3.755 0 0 0 -3.75-3.75zm.25 5.75a.251.251 0 0 1 -.25.25h-4.242a.251.251 0 0 1 -.25-.25v-2a.25.25 0 0 1 .25-.25h4.242a.25.25 0 0 1 .25.25z"/><path d="m35.994 85.076h-7.411a3.755 3.755 0 0 0 -3.75 3.75v2a3.755 3.755 0 0 0 3.75 3.75h7.411a3.754 3.754 0 0 0 3.75-3.75v-2a3.754 3.754 0 0 0 -3.75-3.75zm.25 5.75a.251.251 0 0 1 -.25.25h-7.411a.251.251 0 0 1 -.25-.25v-2a.25.25 0 0 1 .25-.25h7.411a.25.25 0 0 1 .25.25z"/><path d="m70.236 85.076h-4.236a3.755 3.755 0 0 0 -3.75 3.75v2a3.755 3.755 0 0 0 3.75 3.75h4.241a3.754 3.754 0 0 0 3.75-3.75v-2a3.754 3.754 0 0 0 -3.755-3.75zm.25 5.75a.251.251 0 0 1 -.25.25h-4.236a.251.251 0 0 1 -.25-.25v-2a.25.25 0 0 1 .25-.25h4.241a.25.25 0 0 1 .25.25z"/><path d="m55.411 85.076h-7.411a3.755 3.755 0 0 0 -3.75 3.75v2a3.755 3.755 0 0 0 3.75 3.75h7.41a3.754 3.754 0 0 0 3.75-3.75v-2a3.754 3.754 0 0 0 -3.749-3.75zm.25 5.75a.251.251 0 0 1 -.25.25h-7.411a.251.251 0 0 1 -.25-.25v-2a.25.25 0 0 1 .25-.25h7.41a.25.25 0 0 1 .25.25z"/></g></svg>